Coordinates
version=1
nRows=4
nColumns=63
inDegrees=yes

Units are S.I. units (second, meters, Newtons, ...)
If the header above contains a line with 'inDegrees', this indicates whether rotational values are in degrees (yes) or radians (no).

endheader
time	pelvis_tilt	pelvis_list	pelvis_rotation	pelvis_tx	pelvis_ty	pelvis_tz	hip_flexion_r	hip_adduction_r	hip_rotation_r	knee_angle_r	knee_angle_r_beta	ankle_angle_r	subtalar_angle_r	mtp_angle_r	hip_flexion_l	hip_adduction_l	hip_rotation_l	knee_angle_l	knee_angle_l_beta	ankle_angle_l	subtalar_angle_l	mtp_angle_l	L5_S1_Flex_Ext	L5_S1_Lat_Bending	L5_S1_axial_rotation	L4_L5_Flex_Ext	L4_L5_Lat_Bending	L4_L5_axial_rotation	L3_L4_Flex_Ext	L3_L4_Lat_Bending	L3_L4_axial_rotation	L2_L3_Flex_Ext	L2_L3_Lat_Bending	L2_L3_axial_rotation	L1_L2_Flex_Ext	L1_L2_Lat_Bending	L1_L2_axial_rotation	L1_T12_Flex_Ext	L1_T12_Lat_Bending	L1_T12_axial_rotation	Abs_r3	Abs_r2	Abs_r1	Abs_t1	Abs_t2	neck_flexion	neck_bending	neck_rotation	arm_flex_r	arm_add_r	arm_rot_r	elbow_flex_r	pro_sup_r	wrist_flex_r	wrist_dev_r	arm_flex_l	arm_add_l	arm_rot_l	elbow_flex_l	pro_sup_l	wrist_flex_l	wrist_dev_l
      0.91525424	     -4.25664802	     -0.35180579	     92.81159401	      0.24182952	      0.69099989	      0.66597281	     -1.58602559	     -3.61748154	    -21.09139044	     12.04625257	      0.21024677	     19.09239783	     17.41940128	      0.00000000	     -1.99287938	      3.75402987	     -8.60427577	      6.46079706	      0.11276218	     18.26319556	      4.98725332	      0.00000000	      0.09363087	      0.04897100	     -0.13007268	      0.17388189	      0.06513143	     -0.13820222	      0.15382616	      0.11906809	     -0.13820222	      0.10701072	      0.11906809	     -0.11381359	      0.08694563	      0.09986166	     -0.10568405	      0.05350068	      0.07585608	     -0.09755451	      0.66879595	      0.55396974	     -0.72342520	      0.00000000	      0.00000000	      9.50865568	      1.82820169	     20.62840451	     38.17770915	      7.11160528	    -13.57667474	    116.09282600	     78.15649732	    -25.22699915	     12.05937676	     28.36920826	    -28.15616322	    247.79995272	     16.82724674	      6.05476369	     -0.22992489	    -14.19468987
      0.93220339	     -4.38612831	     -0.53314073	     92.24794217	      0.24227151	      0.68958375	      0.66642734	     -1.09119978	     -3.91330449	    -20.50797024	     12.64612417	      0.22071650	     19.27028183	     17.30582767	      0.00000000	     -1.82391731	      3.99460285	     -8.42041685	      6.38692312	      0.11147284	     18.15522728	      3.93908408	      0.00000000	      0.09281369	      0.09257722	      0.30499133	      0.17236431	      0.12312770	      0.32405329	      0.15248361	      0.22509225	      0.32405329	      0.10607677	      0.22509225	      0.26686741	      0.08618679	      0.18878346	      0.24780545	      0.05303374	      0.14340211	      0.22874350	      0.66295892	      1.04725202	      1.69627027	      0.00000000	      0.00000000	      9.23597851	      1.45494267	     22.38266985	     33.87928000	      7.48271095	     -1.52302112	    119.71598567	     79.77969998	    -23.69604874	     12.14611134	     32.06290341	    -26.42224238	    245.77335387	     15.49376520	      5.46661163	      1.81392209	    -15.57715534
      0.94915254	     -4.30400764	     -1.11439801	     91.86927625	      0.24169659	      0.68797278	      0.66598594	     -0.33659182	     -3.98921065	    -20.14045894	     12.98539055	      0.22663782	     19.25187527	     17.26275569	      0.00000000	     -1.42491861	      4.19517228	     -6.14817425	      5.95482863	      0.10393137	     17.40334056	      0.25733130	      0.00000000	      0.13467961	      0.19262000	      0.46145098	      0.25011350	      0.25618460	      0.49029166	      0.22126513	      0.46833627	      0.49029166	      0.15392533	      0.46833627	      0.40376960	      0.12506348	      0.39279070	      0.37492892	      0.07695593	      0.29836838	      0.34608823	      0.96200298	      2.17895596	      2.56645190	      0.00000000	      0.00000000	      9.11160734	      1.11134615	     27.23309480	     30.67042068	      7.53810817	     14.40148858	    119.94845967	     81.22161852	    -21.43805013	     12.05830617	     32.49293469	    -32.83251088	    144.35689226	      5.95901733	     82.85905668	     11.70878764	    -10.34518120
      0.96610169	     -4.48413354	     -1.28686025	     91.48309386	      0.24209830	      0.68706590	      0.66657310	      0.04451532	     -4.25510558	    -19.77860090	     13.26560149	      0.23152842	     19.23765730	     17.24241075	      0.00000000	     -1.26461806	      4.47027993	     -5.58096673	      5.82386064	      0.10164554	     16.96915193	     -1.13696372	      0.00000000	      0.14323258	      0.21512831	      0.88199193	      0.26599722	      0.28612065	      0.93711643	      0.23531680	      0.52306298	      0.93711643	      0.16370051	      0.52306298	      0.77174294	      0.13300577	      0.43868965	      0.71661844	      0.08184309	      0.33323375	      0.66149395	      1.02309596	      2.43357448	      4.90537452	      0.00000000	      0.00000000	      7.90780220	      1.84085042	     28.49307012	     28.71185158	      7.21513051	     28.72527326	    116.72945871	     79.77557013	    -15.96115451	     11.77923146	     35.52181667	    -30.20287372	    138.95429050	      5.09541103	     79.46663153	     14.30367481	     -9.21288554
